<svg width="24" height="12" viewBox="0 0 24 12" fill="none" xmlns="http://www.w3.org/2000/svg">
<path d="M1.49289 0.110464C1.68987 0.109237 1.88514 0.147029 2.06744 0.221658C2.24974 0.296287 2.41545 0.406276 2.55503 0.545279L10.2654 8.17969C10.4987 8.41077 10.7752 8.59363 11.0792 8.71782C11.3832 8.84202 11.7086 8.90511 12.037 8.90351C12.3653 8.9019 12.6902 8.83563 12.9929 8.70847C13.2956 8.58131 13.5704 8.39576 13.8014 8.16242L21.4249 0.463088C21.5625 0.319149 21.7275 0.204068 21.9101 0.124562C22.0927 0.045055 22.2893 0.00271502 22.4885 1.12633e-05C22.6877 -0.00269249 22.8854 0.0342942 23.0701 0.108814C23.2548 0.183334 23.4228 0.293894 23.5643 0.434043C23.7059 0.574192 23.818 0.741123 23.8944 0.925097C23.9707 1.10907 24.0096 1.3064 24.0088 1.50558C24.0081 1.70475 23.9677 1.90178 23.89 2.08517C23.8122 2.26856 23.6988 2.43463 23.5562 2.5737L15.9327 10.273C14.9057 11.3082 13.5098 11.8936 12.0516 11.9008C10.5934 11.9079 9.19192 11.3361 8.1548 10.311L0.444414 2.67661C0.233475 2.46786 0.0892003 2.20123 0.0298448 1.91045C-0.0295106 1.61968 -0.00127882 1.31783 0.110968 1.04311C0.223214 0.768383 0.414431 0.533129 0.660422 0.367112C0.906412 0.201096 1.19612 0.111779 1.49289 0.110464Z" fill="#6C3DBF"/>
</svg>
