<svg width="24" height="12" viewBox="0 0 24 12" fill="none" xmlns="http://www.w3.org/2000/svg">
<path d="M1.49289 11.7904C1.68987 11.7916 1.88514 11.7539 2.06744 11.6792C2.24974 11.6046 2.41545 11.4946 2.55503 11.3556L10.2654 3.72119C10.4987 3.49011 10.7752 3.30725 11.0792 3.18306C11.3832 3.05886 11.7086 2.99577 12.037 2.99737C12.3653 2.99897 12.6902 3.06525 12.9929 3.19241C13.2956 3.31956 13.5704 3.50512 13.8014 3.73846L21.4249 11.4378C21.5625 11.5817 21.7275 11.6968 21.9101 11.7763C22.0927 11.8558 22.2893 11.8982 22.4885 11.9009C22.6877 11.9036 22.8854 11.8666 23.0701 11.7921C23.2548 11.7175 23.4228 11.607 23.5643 11.4668C23.7059 11.3267 23.818 11.1598 23.8944 10.9758C23.9707 10.7918 24.0096 10.5945 24.0088 10.3953C24.0081 10.1961 23.9677 9.9991 23.89 9.81571C23.8122 9.63232 23.6988 9.46625 23.5562 9.32718L15.9327 1.62785C14.9057 0.592651 13.5098 0.00724208 12.0516 0.000117733C10.5934 -0.00700662 9.19192 0.564736 8.1548 1.58985L0.444414 9.22427C0.233475 9.43302 0.0892003 9.69965 0.0298448 9.99043C-0.0295106 10.2812 -0.00127882 10.583 0.110968 10.8578C0.223214 11.1325 0.414431 11.3678 0.660422 11.5338C0.906412 11.6998 1.19612 11.7891 1.49289 11.7904Z" fill="#6C3DBF"/>
</svg>
